<?xml version="1.0" encoding="iso-8859-1"?>
<!-- Generator: Adobe Illustrator 26.0.0, SVG Export Plug-In . SVG Version: 6.00 Build 0)  -->
<svg version="1.1" id="Countryflags.com" xmlns="http://www.w3.org/2000/svg" xmlns:xlink="http://www.w3.org/1999/xlink" x="0px"
	 y="0px" viewBox="0 0 300 300" style="enable-background:new 0 0 300 300;" xml:space="preserve">
<g>
	<defs>
		<circle id="SVGID_1_" cx="150" cy="150" r="150"/>
	</defs>
	<clipPath id="SVGID_00000172401361862834294820000008353191954153552282_">
		<use xlink:href="#SVGID_1_"  style="overflow:visible;"/>
	</clipPath>
	<g style="clip-path:url(#SVGID_00000172401361862834294820000008353191954153552282_);">
		<rect id="_x34_8" x="-64.286" style="fill:#009B3A;" width="428.571" height="300"/>
		<path id="_x34_7" style="fill:#FEDF00;" d="M-27.857,150L150,263.571L327.858,150L150,36.429L-27.857,150z"/>
		<circle id="_x34_6" style="fill:#002776;" cx="150" cy="150" r="75"/>
		<g id="_x34_5">
			<defs>
				<circle id="SVGID_00000127007984743525463280000003132407544955670943_" cx="150" cy="150" r="75"/>
			</defs>
			<clipPath id="SVGID_00000127746586930898213690000002868266623061682620_">
				<use xlink:href="#SVGID_00000127007984743525463280000003132407544955670943_"  style="overflow:visible;"/>
			</clipPath>
			<path style="clip-path:url(#SVGID_00000127746586930898213690000002868266623061682620_);fill:#FFFFFF;" d="M-75,300
				c0-100.595,81.548-182.143,182.143-182.143S289.286,199.405,289.286,300h-10.714c0-94.678-76.751-171.429-171.429-171.429
				c-94.677,0-171.429,76.751-171.429,171.429H-75z"/>
		</g>
		<path id="_x34_4" style="fill:#009B3A;" d="M109.976,126.779l6.424,0.224l0.047-1.326l-5.201-0.182l0.065-1.836l4.079,0.142
			l0.043-1.224l-4.079-0.143l0.05-1.428l4.895,0.171l0.046-1.326l-6.119-0.214L109.976,126.779z"/>
		<path id="_x34_3" style="fill:#009B3A;" d="M119.038,127.165l1.22,0.107l0.427-4.879l0.996,5.004l1.118,0.098l1.85-4.755
			l-0.427,4.879l1.22,0.107l0.623-7.116l-1.779-0.155l-1.85,4.755l-0.996-5.004l-1.779-0.155L119.038,127.165z"/>
		<path id="_x34_2" style="fill:#009B3A;" d="M133.837,128.834l5.28,0.907l0.208-1.207l-4.073-0.7l0.277-1.609l3.319,0.57
			l0.208-1.207l-3.319-0.57l0.19-1.106l3.947,0.678l0.208-1.207l-5.154-0.886L133.837,128.834z"/>
		
			<rect id="_x34_1" x="178.63" y="137.735" transform="matrix(0.3987 -0.9171 0.9171 0.3987 -19.8326 247.9279)" style="fill:#009B3A;" width="1.02" height="2.704"/>
		
			<rect id="_x34_0" x="177.618" y="140.082" transform="matrix(0.3987 -0.9171 0.9171 0.3987 -21.062 249.0615)" style="fill:#009B3A;" width="3.572" height="1.02"/>
		<path id="_x33_9" style="fill:#009B3A;" d="M200.062,151.156c-0.384,0.602,0.005,1.274,0.866,1.822
			c0.86,0.549,1.447,0.529,1.694,0.142c0.781-1.226-3.736-3.015-2.344-5.153c1.2-1.837,3.254-0.407,4.029,0.086
			c0.774,0.494,2.018,1.77,1.051,3.241l-1.313-0.836c0.411-0.645-0.041-1.265-0.729-1.704c-0.667-0.425-1.209-0.619-1.607,0.005
			c-0.666,0.997,3.762,2.88,2.404,5.01c-1,1.571-2.741,0.885-3.903,0.145c-0.99-0.631-2.469-2.117-1.505-3.62L200.062,151.156z"/>
		<path id="_x33_8" style="fill:#009B3A;" d="M189.64,147.659l5.595,3.166l0.653-1.155l-4.529-2.563l0.904-1.599l3.552,2.01
			l0.603-1.066l-3.553-2.01l0.704-1.243l4.263,2.412l0.653-1.155l-5.329-3.015L189.64,147.659z"/>
		<path id="_x33_7" style="fill:#009B3A;" d="M207.724,156.223c-0.414,0.582-0.061,1.272,0.77,1.865
			c0.831,0.592,1.417,0.603,1.685,0.23c0.844-1.184-3.573-3.206-2.071-5.268c1.295-1.771,3.271-0.237,4.018,0.296
			c0.747,0.534,1.923,1.873,0.88,3.291l-1.267-0.903c0.445-0.623,0.026-1.266-0.638-1.74c-0.644-0.459-1.175-0.681-1.605-0.079
			c-0.717,0.961,3.605,3.073,2.139,5.129c-1.081,1.516-2.784,0.74-3.905-0.06c-0.956-0.681-2.355-2.243-1.314-3.694L207.724,156.223
			z"/>
		<path id="_x33_6" style="fill:#009B3A;" d="M88.789,124.14c-0.241-1.958-1.864-3.369-3.625-3.153
			c-1.762,0.216-2.995,1.979-2.755,3.936c0.241,1.958,1.864,3.369,3.625,3.153C87.795,127.861,89.029,126.098,88.789,124.14z
			 M85.598,122.359c2.428,0,2.428,4.353,0,4.353C83.171,126.711,83.171,122.359,85.598,122.359z"/>
		<path id="_x33_5" style="fill:#009B3A;" d="M220.397,163.299c0.907-1.751,0.366-3.834-1.211-4.65
			c-1.576-0.817-3.589-0.059-4.497,1.692c-0.907,1.751-0.365,3.833,1.211,4.65C217.476,165.808,219.489,165.05,220.397,163.299z
			 M218.77,160.027c2.004,1.372-0.455,4.964-2.458,3.592C214.308,162.248,216.767,158.656,218.77,160.027z"/>
		<path id="_x33_4" style="fill:#009B3A;" d="M106.727,120.998c-0.787-1.267-2.374-1.327-2.374-1.327l-3.571,0.055l0.124,7.142
			c0,0,2.833,0.001,3.585-0.07c0.753-0.071,1.638-0.505,2.215-1.265c0.577-0.759,0.572-1.659,0.567-2.211
			C107.27,122.77,107.357,122.015,106.727,120.998z M103.813,125.512c-0.548,0-1.604,0.007-1.604,0.007s-0.063-3.607-0.078-4.489
			c1.478-0.019,1.528-0.019,2.101-0.019c1.06,0.019,1.507,0.809,1.73,1.321c0.08,0.57,0.084,0.8,0.102,1.293
			c-0.065,0.53-0.223,0.967-0.67,1.386C104.66,125.502,104.288,125.512,103.813,125.512z"/>
		<path id="_x33_3" style="fill:#009B3A;" d="M96.971,124.092c0,0,0.747-0.632,0.939-1.536c0.192-0.904-0.367-1.643-0.605-1.855
			c-0.237-0.212-0.736-0.713-1.472-0.684c-0.737,0.029-4.376,0.283-4.376,0.283l0.396,7.133l1.323-0.092l-0.185-2.647l2.298-0.161
			l0.552-0.039c0,0,0.711,1.164,0.779,1.882c0.046,0.423,0.04,0.782,0.04,0.782h1.289c0,0,0.033-1.27-0.335-2.031
			C97.248,124.366,96.971,124.092,96.971,124.092z M96.168,122.982c-0.279,0.232-1.06,0.242-1.06,0.242l-2.208,0.146
			c0,0-0.087-1.245-0.128-1.832c0.335,0.003,2.091-0.145,2.123-0.146c0.354-0.011,0.753-0.046,0.753-0.046s0.288,0.009,0.577,0.26
			c0.055,0.037,0.298,0.251,0.288,0.614C96.503,122.582,96.295,122.911,96.168,122.982z"/>
		<path id="_x33_2" style="fill:#009B3A;" d="M172.414,134.954c0.27-1.954-0.936-3.735-2.695-3.978
			c-1.758-0.243-3.403,1.144-3.673,3.098c-0.27,1.954,0.936,3.735,2.695,3.978C170.5,138.295,172.144,136.908,172.414,134.954z
			 M169.788,132.413c2.347,0.623,1.23,4.83-1.117,4.207C166.325,135.997,167.442,131.79,169.788,132.413z"/>
		<path id="_x33_1" style="fill:#009B3A;" d="M162.151,132.183c0,0,0.911-0.354,1.389-1.145c0.477-0.791,0.19-1.673,0.035-1.95
			c-0.155-0.278-0.461-0.914-1.168-1.128c-0.705-0.214-4.227-1.164-4.227-1.164l-1.958,6.87l1.281,0.345l0.69-2.561l2.224,0.599
			l0.535,0.144c0,0,0.291,1.333,0.121,2.033c-0.095,0.414-0.218,0.752-0.218,0.752l1.218,0.422c0,0,0.446-1.19,0.349-2.029
			C162.322,132.533,162.151,132.183,162.151,132.183z M161.755,130.871c-0.339,0.129-1.081-0.118-1.081-0.118l-2.135-0.584
			c0,0,0.325-1.206,0.478-1.774c0.315,0.112,2.023,0.547,2.054,0.556c0.338,0.105,0.727,0.203,0.727,0.203s0.27,0.103,0.46,0.435
			c0.04,0.053,0.199,0.335,0.071,0.674C162.202,130.603,161.898,130.847,161.755,130.871z"/>
		<path id="_x33_0" style="fill:#009B3A;" d="M188.094,142.695c0,0,0.939-0.275,1.482-1.022c0.542-0.748,0.331-1.651,0.201-1.941
			c-0.131-0.29-0.383-0.95-1.068-1.224c-0.685-0.273-4.114-1.518-4.114-1.518l-2.533,6.679l1.246,0.453l0.906-2.494l2.164,0.786
			l0.521,0.189c0,0,0.177,1.352-0.052,2.036c-0.13,0.405-0.281,0.731-0.281,0.731l1.178,0.523c0,0,0.546-1.148,0.52-1.992
			C188.235,143.058,188.094,142.695,188.094,142.695z M187.81,141.355c-0.349,0.099-1.067-0.209-1.067-0.209l-2.077-0.763
			c0,0,0.426-1.174,0.626-1.727c0.305,0.138,1.971,0.716,2,0.729c0.328,0.133,0.707,0.263,0.707,0.263s0.259,0.126,0.421,0.472
			c0.035,0.056,0.17,0.351,0.014,0.678C188.279,141.125,187.956,141.342,187.81,141.355z"/>
		<path id="_x32_9" style="fill:#009B3A;" d="M153.363,129.799c0,0,0.903-0.376,1.361-1.178c0.458-0.802,0.149-1.677-0.012-1.951
			c-0.162-0.274-0.484-0.903-1.195-1.1c-0.711-0.197-4.255-1.062-4.255-1.062l-1.792,6.915l1.289,0.314l0.629-2.577l2.238,0.546
			l0.539,0.131 M152.935,128.497c-0.336,0.137-1.084-0.092-1.084-0.092l-2.148-0.533c0,0,0.296-1.213,0.435-1.785
			c0.318,0.104,2.037,0.498,2.067,0.507c0.341,0.097,0.732,0.185,0.732,0.185s0.272,0.097,0.47,0.424
			c0.042,0.052,0.208,0.33,0.088,0.672C153.376,128.218,153.078,128.469,152.935,128.497z"/>
		<path id="_x32_8" style="fill:#009B3A;" d="M179.931,138.825c-0.184-0.081-0.376-0.139-0.568-0.199
			c-0.559,1.054-1.795,1.804-2.897,1.049c-2.004-1.371,0.455-4.962,2.458-3.592c0.484,0.331,0.702,0.792,0.735,1.281
			c0.303,0.129,0.631,0.188,0.934,0.328c0.128,0.059,0.254,0.119,0.382,0.178c0.102-1.314-0.493-2.572-1.636-3.163
			c-1.576-0.817-3.589-0.059-4.497,1.692c-0.907,1.751-0.365,3.833,1.211,4.65c1.576,0.817,3.589,0.059,4.497-1.692
			c0.036-0.069,0.066-0.14,0.097-0.211C180.408,139.04,180.171,138.931,179.931,138.825z"/>
		<polygon id="_x32_7" style="fill:#FFFFFF;" points="176.078,125.759 174.49,126.912 175.097,128.778 173.51,127.625 
			171.923,128.778 172.529,126.912 170.942,125.759 172.904,125.759 173.51,123.894 174.116,125.759 		"/>
		<polygon id="_x32_6" style="fill:#FFFFFF;" points="85.719,135.537 87.608,136.91 86.886,139.131 88.776,137.759 90.665,139.131 
			89.943,136.91 91.833,135.537 89.497,135.537 88.776,133.316 88.054,135.537 		"/>
		<polygon id="_x32_5" style="fill:#FFFFFF;" points="168.422,145.561 169.729,146.511 169.23,148.048 170.537,147.098 
			171.845,148.048 171.345,146.511 172.653,145.561 171.037,145.561 170.537,144.024 170.045,145.561 		"/>
		<polygon id="_x32_4" style="fill:#FFFFFF;" points="101.407,163.157 102.208,163.718 101.899,164.669 102.694,164.092 
			103.489,164.669 103.185,163.735 103.981,163.157 102.997,163.157 102.694,162.222 102.39,163.157 		"/>
		<polyline id="_x32_3" style="fill:#FFFFFF;" points="95.396,164.847 94.685,167.068 92.351,167.068 94.241,168.44 93.519,170.662 
			95.408,169.289 97.298,170.662 96.576,168.44 98.465,167.068 96.13,167.068 95.408,164.847 		"/>
		<polygon id="_x32_2" style="fill:#FFFFFF;" points="83.677,173.968 85.251,175.112 84.65,176.963 86.225,175.819 87.799,176.963 
			87.198,175.112 88.772,173.968 86.826,173.968 86.225,172.117 85.623,173.968 		"/>
		<polygon id="_x32_1" style="fill:#FFFFFF;" points="118.978,152.184 120.521,153.305 119.932,155.118 121.475,153.997 
			123.017,155.118 122.428,153.305 123.971,152.184 122.064,152.184 121.475,150.37 120.885,152.184 		"/>
		<polygon id="_x32_0" style="fill:#FFFFFF;" points="108.892,174.583 110.315,175.617 109.772,177.29 111.195,176.256 
			112.618,177.29 112.074,175.617 113.497,174.583 111.738,174.583 111.195,172.911 110.651,174.583 		"/>
		<polygon id="_x31_9" style="fill:#FFFFFF;" points="106.777,182.431 108.084,183.381 107.585,184.918 108.893,183.968 
			110.2,184.918 109.7,183.381 111.008,182.431 109.392,182.431 108.893,180.894 108.4,182.431 		"/>
		<polygon id="_x31_8" style="fill:#FFFFFF;" points="116.905,188.404 118.795,189.777 118.073,191.999 119.962,190.626 
			121.851,191.999 121.129,189.777 123.019,188.404 120.684,188.404 119.962,186.184 119.24,188.404 		"/>
		<polygon id="_x31_7" style="fill:#FFFFFF;" points="147.432,161.481 149.019,162.633 148.413,164.5 150,163.346 151.588,164.5 
			150.981,162.633 152.568,161.481 150.598,161.481 150,159.616 149.394,161.481 		"/>
		<polygon id="_x31_6" style="fill:#FFFFFF;" points="140.304,168.236 141.612,169.185 141.113,170.722 142.417,169.77 
			143.727,170.722 143.228,169.185 144.535,168.236 142.919,168.236 142.42,166.699 141.92,168.236 		"/>
		<polygon id="_x31_5" style="fill:#FFFFFF;" points="144.887,173.407 145.682,173.985 145.379,174.92 146.174,174.342 
			146.969,174.92 146.665,173.985 147.461,173.407 146.477,173.407 146.174,172.473 145.87,173.407 		"/>
		<polygon id="_x31_4" style="fill:#FFFFFF;" points="156.101,168.036 157.688,169.188 157.081,171.054 158.668,169.901 
			160.256,171.054 159.649,169.188 161.236,168.036 159.275,168.036 158.668,166.17 158.071,168.036 		"/>
		<polygon id="_x31_3" style="fill:#FFFFFF;" points="146.943,183.016 148.833,184.389 148.111,186.61 150,185.237 151.889,186.61 
			151.167,184.389 153.057,183.016 150.722,183.016 150,180.795 149.289,183.016 		"/>
		<polygon id="_x31_2" style="fill:#FFFFFF;" points="148.972,208.352 149.578,208.792 149.347,209.505 149.953,209.064 
			150.559,209.505 150.327,208.792 150.933,208.352 150.184,208.352 149.953,207.64 149.724,208.352 		"/>
		<polygon id="_x31_1" style="fill:#FFFFFF;" points="164.397,191.411 165.704,192.361 165.205,193.898 166.513,192.949 
			167.82,193.898 167.32,192.361 168.628,191.411 167.012,191.411 166.513,189.875 166.02,191.411 		"/>
		<polygon id="_x31_0" style="fill:#FFFFFF;" points="169.85,199.644 171.437,200.797 170.831,202.663 172.418,201.509 
			174.005,202.663 173.399,200.797 174.986,199.644 173.024,199.644 172.418,197.779 171.812,199.644 		"/>
		<polygon id="_x39_" style="fill:#FFFFFF;" points="179.717,194.065 181.025,193.116 179.409,193.116 178.91,191.579 
			178.417,193.116 176.794,193.116 178.101,194.066 177.602,195.603 178.91,194.653 180.217,195.603 		"/>
		<polygon id="_x38_" style="fill:#FFFFFF;" points="185.134,190.626 186.442,191.576 185.943,193.113 187.25,192.163 
			188.557,193.113 188.058,191.576 189.365,190.626 187.749,190.626 187.25,189.089 186.75,190.626 		"/>
		<polygon id="_x37_" style="fill:#FFFFFF;" points="184.874,197.718 186.462,198.87 185.855,200.736 187.442,199.583 
			189.029,200.736 188.423,198.87 190.01,197.718 188.048,197.718 187.442,195.852 186.836,197.718 		"/>
		<polygon id="_x36_" style="fill:#FFFFFF;" points="185.505,205.551 186.812,206.501 186.314,208.038 187.621,207.088 
			188.928,208.038 188.428,206.501 189.736,205.551 188.113,205.551 187.621,204.014 187.129,205.551 		"/>
		<polygon id="_x35_" style="fill:#FFFFFF;" points="192.97,191.968 194.278,192.917 193.779,194.455 195.086,193.505 
			196.394,194.455 195.894,192.917 197.202,191.968 195.586,191.968 195.086,190.431 194.587,191.968 		"/>
		<polyline id="_x34_" style="fill:#FFFFFF;" points="198.521,188.082 200.108,189.235 199.501,191.101 201.088,189.948 
			202.676,191.101 202.069,189.235 203.656,188.082 201.695,188.082 201.088,186.217 200.491,188.082 198.566,188.073 		"/>
		<polygon id="_x33__1_" style="fill:#FFFFFF;" points="203.028,182.231 204.615,183.384 204.009,185.25 205.596,184.096 
			207.183,185.25 206.576,183.384 208.164,182.231 206.202,182.231 205.595,180.366 204.989,182.231 		"/>
		<polygon id="_x32__1_" style="fill:#FFFFFF;" points="199.481,175.278 201.371,176.651 200.649,178.872 202.538,177.499 
			204.428,178.872 203.706,176.651 205.595,175.278 203.26,175.278 202.538,173.057 201.817,175.278 		"/>
		<polygon id="_x31__1_" style="fill:#FFFFFF;" points="210.925,176.41 212.232,177.36 211.733,178.897 213.04,177.947 
			214.348,178.897 213.848,177.36 215.156,176.41 213.54,176.41 213.041,174.873 212.548,176.41 		"/>
	</g>
</g>
</svg>
