<?xml version="1.0" encoding="iso-8859-1"?>
<!-- Generator: Adobe Illustrator 26.0.0, SVG Export Plug-In . SVG Version: 6.00 Build 0)  -->
<svg version="1.1" id="Countryflags.com" xmlns="http://www.w3.org/2000/svg" xmlns:xlink="http://www.w3.org/1999/xlink" x="0px"
	 y="0px" viewBox="0 0 300 300" style="enable-background:new 0 0 300 300;" xml:space="preserve">
<g>
	<defs>
		<circle id="SVGID_1_" cx="150" cy="150" r="150"/>
	</defs>
	<clipPath id="SVGID_00000076570137649418934600000013267493954572686476_">
		<use xlink:href="#SVGID_1_"  style="overflow:visible;"/>
	</clipPath>
	<g style="clip-path:url(#SVGID_00000076570137649418934600000013267493954572686476_);">
		<rect id="_x35_9" x="0" style="fill:#FFFFFF;" width="570" height="300"/>
		<rect id="_x35_8" x="0" style="fill:#B22234;" width="570" height="23.077"/>
		<rect id="_x35_7" x="0" y="46.154" style="fill:#B22234;" width="570" height="23.077"/>
		<rect id="_x35_6" x="0" y="92.308" style="fill:#B22234;" width="570" height="23.077"/>
		<rect id="_x35_5" x="0" y="138.462" style="fill:#B22234;" width="570" height="23.077"/>
		<rect id="_x35_4" x="0" y="184.615" style="fill:#B22234;" width="570" height="23.077"/>
		<rect id="_x35_3" x="0" y="230.769" style="fill:#B22234;" width="570" height="23.077"/>
		<rect id="_x35_2" x="0" y="276.923" style="fill:#B22234;" width="570" height="23.077"/>
		<rect id="_x35_1" x="0" style="fill:#3C3B6E;" width="228" height="161.538"/>
		<polygon id="_x35_0" style="fill:#FFFFFF;" points="10.712,13.114 16.143,17.06 14.068,23.445 19.5,19.499 24.931,23.445 
			22.856,17.06 28.287,13.114 21.574,13.114 19.5,6.729 17.425,13.114 		"/>
		<polygon id="_x34_9" style="fill:#FFFFFF;" points="48.512,13.114 53.943,17.06 51.868,23.445 57.3,19.499 62.731,23.445 
			60.656,17.06 66.087,13.114 59.374,13.114 57.3,6.729 55.225,13.114 		"/>
		<polygon id="_x34_8" style="fill:#FFFFFF;" points="86.312,13.114 91.743,17.06 89.669,23.445 95.1,19.499 100.531,23.445 
			98.456,17.06 103.887,13.114 97.174,13.114 95.1,6.729 93.025,13.114 		"/>
		<polygon id="_x34_7" style="fill:#FFFFFF;" points="124.112,13.114 129.543,17.06 127.469,23.445 132.9,19.499 138.331,23.445 
			136.257,17.06 141.688,13.114 134.974,13.114 132.9,6.729 130.825,13.114 		"/>
		<polygon id="_x34_6" style="fill:#FFFFFF;" points="161.912,13.114 167.343,17.06 165.268,23.445 170.7,19.499 176.131,23.445 
			174.056,17.06 179.487,13.114 172.774,13.114 170.7,6.729 168.625,13.114 		"/>
		<polygon id="_x34_5" style="fill:#FFFFFF;" points="199.712,13.114 205.143,17.06 203.068,23.445 208.499,19.499 213.931,23.445 
			211.856,17.06 217.287,13.114 210.574,13.114 208.499,6.729 206.425,13.114 		"/>
		<polygon id="_x34_4" style="fill:#FFFFFF;" points="29.612,29.314 35.043,33.26 32.968,39.645 38.399,35.699 43.831,39.645 
			41.756,33.26 47.187,29.314 40.474,29.314 38.399,22.929 36.325,29.314 		"/>
		<polygon id="_x34_3" style="fill:#FFFFFF;" points="67.412,29.314 72.843,33.26 70.768,39.645 76.2,35.699 81.631,39.645 
			79.556,33.26 84.987,29.314 78.274,29.314 76.2,22.929 74.125,29.314 		"/>
		<polygon id="_x34_2" style="fill:#FFFFFF;" points="105.212,29.314 110.643,33.26 108.569,39.645 114,35.699 119.431,39.645 
			117.356,33.26 122.787,29.314 116.074,29.314 114,22.929 111.925,29.314 		"/>
		<polygon id="_x34_1" style="fill:#FFFFFF;" points="143.012,29.314 148.443,33.26 146.368,39.645 151.799,35.699 157.231,39.645 
			155.156,33.26 160.587,29.314 153.874,29.314 151.799,22.929 149.725,29.314 		"/>
		<polygon id="_x34_0" style="fill:#FFFFFF;" points="180.812,29.314 186.243,33.26 184.168,39.645 189.599,35.699 195.03,39.645 
			192.956,33.26 198.387,29.314 191.674,29.314 189.599,22.929 187.525,29.314 		"/>
		<polygon id="_x33_9" style="fill:#FFFFFF;" points="10.712,45.515 16.143,49.461 14.068,55.845 19.5,51.899 24.931,55.845 
			22.856,49.46 28.287,45.515 21.574,45.515 19.5,39.13 17.425,45.515 		"/>
		<polygon id="_x33_8" style="fill:#FFFFFF;" points="48.512,45.515 53.943,49.461 51.868,55.845 57.3,51.899 62.731,55.845 
			60.656,49.46 66.087,45.515 59.374,45.515 57.3,39.13 55.225,45.515 		"/>
		<polygon id="_x33_7_1_" style="fill:#FFFFFF;" points="86.312,45.515 91.743,49.461 89.669,55.845 95.1,51.899 100.531,55.845 
			98.456,49.46 103.887,45.515 97.174,45.515 95.1,39.13 93.025,45.515 		"/>
		<polygon id="_x33_6_1_" style="fill:#FFFFFF;" points="124.112,45.515 129.543,49.461 127.469,55.845 132.9,51.899 
			138.331,55.845 136.257,49.46 141.688,45.515 134.974,45.515 132.9,39.13 130.825,45.515 		"/>
		<polygon id="_x33_5_1_" style="fill:#FFFFFF;" points="161.912,45.515 167.343,49.461 165.268,55.845 170.7,51.899 
			176.131,55.845 174.056,49.46 179.487,45.515 172.774,45.515 170.7,39.13 168.625,45.515 		"/>
		<polygon id="_x33_4_1_" style="fill:#FFFFFF;" points="199.712,45.515 205.143,49.461 203.068,55.845 208.499,51.899 
			213.931,55.845 211.856,49.46 217.287,45.515 210.574,45.515 208.499,39.13 206.425,45.515 		"/>
		<polygon id="_x33_3_1_" style="fill:#FFFFFF;" points="30.078,61.768 35.509,65.714 33.435,72.099 38.866,68.153 44.297,72.099 
			42.222,65.714 47.654,61.768 40.94,61.768 38.866,55.383 36.791,61.768 		"/>
		<polygon id="_x33_2_1_" style="fill:#FFFFFF;" points="67.878,61.768 73.309,65.714 71.235,72.099 76.666,68.153 82.097,72.099 
			80.023,65.714 85.454,61.768 78.74,61.768 76.666,55.383 74.591,61.768 		"/>
		<polygon id="_x33_1_1_" style="fill:#FFFFFF;" points="105.678,61.768 111.109,65.714 109.035,72.099 114.466,68.153 
			119.897,72.099 117.823,65.714 123.254,61.768 116.541,61.768 114.466,55.383 112.392,61.768 		"/>
		<polygon id="_x33_0_1_" style="fill:#FFFFFF;" points="143.478,61.768 148.909,65.714 146.835,72.099 152.266,68.153 
			157.697,72.099 155.622,65.714 161.054,61.768 154.34,61.768 152.266,55.383 150.191,61.768 		"/>
		<polygon id="_x32_9_1_" style="fill:#FFFFFF;" points="181.278,61.768 186.709,65.714 184.634,72.099 190.066,68.153 
			195.497,72.099 193.422,65.714 198.853,61.768 192.14,61.768 190.066,55.383 187.991,61.768 		"/>
		<polygon id="_x32_8_1_" style="fill:#FFFFFF;" points="11.286,77.832 16.717,81.778 14.642,88.163 20.073,84.217 25.504,88.163 
			23.43,81.778 28.861,77.832 22.148,77.832 20.073,71.447 17.999,77.832 		"/>
		<polygon id="_x32_7_1_" style="fill:#FFFFFF;" points="49.085,77.832 54.516,81.778 52.442,88.163 57.873,84.217 63.304,88.163 
			61.23,81.778 66.661,77.832 59.948,77.832 57.873,71.447 55.799,77.832 		"/>
		<polygon id="_x32_6_1_" style="fill:#FFFFFF;" points="86.886,77.832 92.317,81.778 90.242,88.163 95.673,84.217 101.104,88.163 
			99.03,81.778 104.461,77.832 97.748,77.832 95.673,71.447 93.599,77.832 		"/>
		<polygon id="_x32_5_1_" style="fill:#FFFFFF;" points="124.686,77.832 130.117,81.778 128.042,88.163 133.473,84.217 
			138.905,88.163 136.83,81.778 142.261,77.832 135.548,77.832 133.473,71.447 131.399,77.832 		"/>
		<polygon id="_x32_4_1_" style="fill:#FFFFFF;" points="162.485,77.832 167.916,81.778 165.842,88.163 171.273,84.217 
			176.704,88.163 174.63,81.778 180.061,77.832 173.348,77.832 171.273,71.447 169.199,77.832 		"/>
		<polygon id="_x32_3_1_" style="fill:#FFFFFF;" points="200.285,77.832 205.716,81.778 203.642,88.163 209.073,84.217 
			214.504,88.163 212.43,81.778 217.861,77.832 211.148,77.832 209.073,71.447 206.998,77.832 		"/>
		<polygon id="_x32_2_1_" style="fill:#FFFFFF;" points="11.64,109.72 17.071,113.666 14.996,120.051 20.427,116.105 
			25.859,120.051 23.784,113.666 29.215,109.72 22.502,109.72 20.427,103.335 18.353,109.72 		"/>
		<polygon id="_x32_1_1_" style="fill:#FFFFFF;" points="49.44,109.72 54.871,113.666 52.796,120.051 58.227,116.105 
			63.658,120.051 61.584,113.666 67.015,109.72 60.302,109.72 58.227,103.335 56.153,109.72 		"/>
		<polygon id="_x32_0_1_" style="fill:#FFFFFF;" points="87.24,109.72 92.671,113.666 90.596,120.051 96.027,116.105 
			101.459,120.051 99.384,113.666 104.815,109.72 98.102,109.72 96.027,103.335 93.953,109.72 		"/>
		<polygon id="_x31_9_1_" style="fill:#FFFFFF;" points="125.04,109.72 130.471,113.666 128.396,120.051 133.828,116.105 
			139.259,120.051 137.184,113.666 142.615,109.72 135.902,109.72 133.828,103.335 131.753,109.72 		"/>
		<polygon id="_x31_8_1_" style="fill:#FFFFFF;" points="162.84,109.72 168.271,113.666 166.196,120.051 171.627,116.105 
			177.059,120.051 174.984,113.666 180.415,109.72 173.702,109.72 171.627,103.335 169.553,109.72 		"/>
		<polygon id="_x31_7_1_" style="fill:#FFFFFF;" points="200.639,109.72 206.07,113.666 203.996,120.051 209.427,116.105 
			214.858,120.051 212.784,113.666 218.215,109.72 211.502,109.72 209.427,103.335 207.353,109.72 		"/>
		<polygon id="_x31_6_1_" style="fill:#FFFFFF;" points="11.178,141.982 16.609,145.928 14.535,152.313 19.966,148.367 
			25.397,152.313 23.322,145.928 28.753,141.982 22.04,141.982 19.966,135.597 17.891,141.982 		"/>
		<polygon id="_x31_5_1_" style="fill:#FFFFFF;" points="48.978,141.982 54.409,145.928 52.334,152.313 57.766,148.367 
			63.197,152.313 61.122,145.928 66.553,141.982 59.84,141.982 57.766,135.597 55.691,141.982 		"/>
		<polygon id="_x31_4_1_" style="fill:#FFFFFF;" points="86.778,141.982 92.209,145.928 90.135,152.313 95.566,148.367 
			100.997,152.313 98.922,145.928 104.353,141.982 97.64,141.982 95.566,135.597 93.491,141.982 		"/>
		<polygon id="_x31_3_1_" style="fill:#FFFFFF;" points="124.578,141.982 130.009,145.928 127.935,152.313 133.366,148.367 
			138.797,152.313 136.723,145.928 142.154,141.982 135.44,141.982 133.366,135.597 131.291,141.982 		"/>
		<polygon id="_x31_2_1_" style="fill:#FFFFFF;" points="162.378,141.982 167.809,145.928 165.734,152.313 171.166,148.367 
			176.597,152.313 174.522,145.928 179.953,141.982 173.24,141.982 171.166,135.597 169.091,141.982 		"/>
		<polygon id="_x31_1_1_" style="fill:#FFFFFF;" points="200.178,141.982 205.609,145.928 203.534,152.313 208.965,148.367 
			214.397,152.313 212.322,145.928 217.753,141.982 211.04,141.982 208.965,135.597 206.891,141.982 		"/>
		<polygon id="_x31_0_1_" style="fill:#FFFFFF;" points="30.19,93.616 35.621,97.562 33.547,103.947 38.978,100.001 44.409,103.947 
			42.335,97.562 47.766,93.616 41.053,93.616 38.978,87.231 36.903,93.616 		"/>
		<polygon id="_x39__1_" style="fill:#FFFFFF;" points="67.99,93.616 73.421,97.562 71.347,103.947 76.778,100.001 82.209,103.947 
			80.135,97.562 85.566,93.616 78.853,93.616 76.778,87.231 74.704,93.616 		"/>
		<polygon id="_x38__1_" style="fill:#FFFFFF;" points="105.791,93.616 111.222,97.562 109.147,103.947 114.578,100.001 
			120.01,103.947 117.935,97.562 123.366,93.616 116.653,93.616 114.578,87.231 112.504,93.616 		"/>
		<polygon id="_x37__1_" style="fill:#FFFFFF;" points="143.59,93.616 149.021,97.562 146.947,103.947 152.378,100.001 
			157.809,103.947 155.735,97.562 161.166,93.616 154.453,93.616 152.378,87.231 150.303,93.616 		"/>
		<polygon id="_x36__1_" style="fill:#FFFFFF;" points="181.39,93.616 186.821,97.562 184.747,103.947 190.178,100.001 
			195.609,103.947 193.534,97.562 198.966,93.616 192.252,93.616 190.178,87.231 188.103,93.616 		"/>
		<polygon id="_x35__1_" style="fill:#FFFFFF;" points="30.078,125.828 35.509,129.774 33.435,136.159 38.866,132.213 
			44.297,136.159 42.223,129.774 47.654,125.828 40.941,125.828 38.866,119.443 36.792,125.828 		"/>
		<polygon id="_x34_" style="fill:#FFFFFF;" points="67.878,125.828 73.31,129.774 71.235,136.159 76.666,132.213 82.097,136.159 
			80.023,129.774 85.454,125.828 78.741,125.828 76.666,119.443 74.592,125.828 		"/>
		<polygon id="_x33_" style="fill:#FFFFFF;" points="105.679,125.828 111.11,129.774 109.035,136.159 114.466,132.213 
			119.898,136.159 117.823,129.774 123.254,125.828 116.541,125.828 114.466,119.443 112.392,125.828 		"/>
		<polygon id="_x32__1_" style="fill:#FFFFFF;" points="143.478,125.828 148.909,129.774 146.835,136.159 152.266,132.213 
			157.697,136.159 155.623,129.774 161.054,125.828 154.341,125.828 152.266,119.443 150.192,125.828 		"/>
		<polygon id="_x31__1_" style="fill:#FFFFFF;" points="181.278,125.828 186.709,129.774 184.635,136.159 190.066,132.213 
			195.497,136.159 193.423,129.774 198.854,125.828 192.14,125.828 190.066,119.443 187.991,125.828 		"/>
	</g>
</g>
</svg>
