<?xml version="1.0" encoding="utf-8"?>
<!-- Generator: Adobe Illustrator 26.0.0, SVG Export Plug-In . SVG Version: 6.00 Build 0)  -->
<svg version="1.1" id="Laag_1" xmlns="http://www.w3.org/2000/svg" xmlns:xlink="http://www.w3.org/1999/xlink" x="0px" y="0px"
	 viewBox="0 0 24 24" style="enable-background:new 0 0 24 24;" xml:space="preserve">
<style type="text/css">
	.st0{fill:#FFFDE1;}
</style>
<g id="XMLID_00000078757895886491632140000007624780883078730890_">
	<g>
		<polygon class="st0" points="24,5 24,24 2,24 2,22 22,22 22,5 		"/>
		<path class="st0" d="M17,3c0,0.5-0.5,1-1,1c-0.6,0-1-0.5-1-1V1c0-0.6,0.4-1,1-1c0.5,0,1,0.4,1,1V3z"/>
		<rect x="13" y="14" class="st0" width="2" height="2"/>
		<rect x="13" y="10" class="st0" width="2" height="2"/>
		<rect x="9" y="14" class="st0" width="2" height="2"/>
		<rect x="9" y="10" class="st0" width="2" height="2"/>
		<rect x="5" y="14" class="st0" width="2" height="2"/>
		<rect x="5" y="10" class="st0" width="2" height="2"/>
		<path class="st0" d="M4,4C3.5,4,3,3.5,3,3V1c0-0.6,0.5-1,1-1s1,0.4,1,1v2C5,3.5,4.6,4,4,4z"/>
		<path class="st0" d="M2,18h16V8H2V18z M2,3c0,1.1,0.9,2,2,2s2-0.9,2-2V2h8v1c0,1.1,0.9,2,2,2s2-0.9,2-2V2h2v18H0V2h2V3z"/>
	</g>
</g>
</svg>
